<?xml version="1.0" encoding="UTF-8" standalone="no"?>
<svg
   xmlns:dc="http://purl.org/dc/elements/1.1/"
   xmlns:cc="http://creativecommons.org/ns#"
   xmlns:rdf="http://www.w3.org/1999/02/22-rdf-syntax-ns#"
   xmlns:svg="http://www.w3.org/2000/svg"
   xmlns="http://www.w3.org/2000/svg"
   xmlns:xlink="http://www.w3.org/1999/xlink"
   xmlns:sodipodi="http://sodipodi.sourceforge.net/DTD/sodipodi-0.dtd"
   xmlns:inkscape="http://www.inkscape.org/namespaces/inkscape"
   inkscape:version="1.0 (4035a4fb49, 2020-05-01)"
   sodipodi:docname="logo.svg"
   xml:space="preserve"
   enable-background="new 0 0 821.326 907.827"
   viewBox="0 0 821.326 907.827"
   height="907.827px"
   width="821.326px"
   y="0px"
   x="0px"
   id="Layer_1"
   version="1.1"><metadata
   id="metadata4529"><rdf:RDF><cc:Work
       rdf:about=""><dc:format>image/svg+xml</dc:format><dc:type
         rdf:resource="http://purl.org/dc/dcmitype/StillImage" /><dc:title></dc:title></cc:Work></rdf:RDF></metadata><defs
   id="defs4527"><linearGradient
   inkscape:collect="always"
   id="linearGradient1099"><stop
     style="stop-color:#000000;stop-opacity:1;"
     offset="0"
     id="stop1105" /><stop
     style="stop-color:#000000;stop-opacity:0;"
     offset="1"
     id="stop1107" /></linearGradient>
	<defs
   id="defs4397">
		<rect
   id="SVGID_1_"
   y="0"
   width="821.326"
   height="907.827" />
	</defs>
	<clipPath
   id="SVGID_2_">
		<use
   xlink:href="#SVGID_1_"
   overflow="visible"
   id="use4399" />
	</clipPath>
	
	
	
	
	
	
	
	
	
	
	
	
	
	
	
	
	
	
	
	
	
	
	
	
	
	
	
	
	
	
	
	
	
	
	
	
	
	
	
	
	
	
	
	
	
	
	
	
	
	
	
	
	
	
	
	
	
	
	
	
<linearGradient
   y2="142.68762"
   x2="-1538.7365"
   y1="141.9877"
   x1="-1849.484"
   gradientUnits="userSpaceOnUse"
   id="linearGradient1103"
   xlink:href="#linearGradient1099"
   inkscape:collect="always" /></defs><sodipodi:namedview
   inkscape:document-rotation="0"
   inkscape:current-layer="Layer_1"
   inkscape:window-maximized="1"
   inkscape:window-y="0"
   inkscape:window-x="1920"
   inkscape:cy="51.189296"
   inkscape:cx="-93.016232"
   inkscape:zoom="0.5"
   inkscape:snap-global="false"
   showgrid="false"
   id="namedview4525"
   inkscape:window-height="1048"
   inkscape:window-width="1571"
   inkscape:pageshadow="2"
   inkscape:pageopacity="0"
   guidetolerance="10"
   gridtolerance="10"
   objecttolerance="10"
   borderopacity="1"
   bordercolor="#666666"
   pagecolor="#ffffff" />
<rect
   x="-1768.8999"
   y="-701.4939"
   width="727.10114"
   height="535.41003"
   id="rect5408"
   style="fill:#ffffff;stroke-width:1.43530941" />


























<text
   id="text2391"
   y="187.27393"
   x="355.88809"
   style="font-style:normal;font-variant:normal;font-weight:normal;font-stretch:normal;font-size:16.6073px;line-height:1.25;font-family:Montserrat;-inkscape-font-specification:Montserrat;font-variant-ligatures:normal;font-variant-position:normal;font-variant-caps:normal;font-variant-numeric:normal;font-variant-alternates:normal;font-feature-settings:normal;text-indent:0;text-align:start;text-decoration:none;text-decoration-line:none;text-decoration-style:solid;text-decoration-color:#000000;letter-spacing:0px;word-spacing:0px;text-transform:none;writing-mode:lr-tb;direction:ltr;text-orientation:mixed;dominant-baseline:auto;baseline-shift:baseline;text-anchor:start;white-space:normal;shape-padding:0;opacity:1;vector-effect:none;fill:#ffffff;fill-opacity:1;stroke:none;stroke-width:0.415187;stroke-linecap:butt;stroke-linejoin:miter;stroke-miterlimit:4;stroke-dasharray:none;stroke-dashoffset:0;stroke-opacity:1"
   xml:space="preserve" />






<g
   style="stroke-width:1.57296"
   inkscape:export-ydpi="96"
   inkscape:export-xdpi="96"
   inkscape:export-filename="/home/paluh/programming/purescript/projects/lambdaterms.github.io/src/images/logo.png"
   transform="matrix(2.6017349,0,0,2.6017349,979.40469,-331.52087)"
   id="g1203"><g
     style="fill:#000000;stroke-width:1.57296"
     id="g1105"
     transform="translate(-600,-100)"><polygon
       id="polygon1095"
       points="281.838,276.398 288.302,282.433 316.683,282.433 310.22,276.398 "
       style="fill:#000000;stroke-width:1.57296" /><polygon
       id="polygon1097"
       points="310.22,267.312 316.683,261.277 288.302,261.277 281.839,267.312 "
       style="fill:#000000;stroke-width:1.57296" /><polygon
       id="polygon1099"
       points="281.841,246.152 288.302,252.189 316.681,252.189 310.22,246.152 "
       style="fill:#000000;stroke-width:1.57296" /><path
       clip-path="url(#SVGID_2_)"
       d="m 278.853,258.162 -4.27,-4.27 -15.83,15.829 c -0.568,0.568 -0.882,1.328 -0.88,2.134 0,0.807 0.312,1.565 0.88,2.133 l 15.83,15.83 4.27,-4.267 -13.695,-13.696 z"
       id="path1101"
       inkscape:connector-curvature="0"
       style="fill:#000000;stroke-width:1.57296" /><path
       clip-path="url(#SVGID_2_)"
       d="m 339.769,254.599 -15.824,-15.832 -4.268,4.269 13.688,13.696 -13.688,13.695 4.268,4.268 15.824,-15.826 c 0.57,-0.573 0.885,-1.332 0.885,-2.139 -0.003,-0.807 -0.316,-1.563 -0.885,-2.131"
       id="path1103"
       inkscape:connector-curvature="0"
       style="fill:#000000;stroke-width:1.57296" /></g><g
     id="g1117"
     transform="matrix(0.84348083,0,0,0.84348083,-553.15953,-18.474015)"
     style="opacity:0.698;fill:#000000;stroke-width:1.57296"><polygon
       points="281.838,276.398 288.302,282.433 316.683,282.433 310.22,276.398 "
       id="polygon1107"
       style="fill:#000000;stroke-width:1.57296" /><polygon
       points="310.22,267.312 316.683,261.277 288.302,261.277 281.839,267.312 "
       id="polygon1109"
       style="fill:#000000;stroke-width:1.57296" /><polygon
       points="281.841,246.152 288.302,252.189 316.681,252.189 310.22,246.152 "
       id="polygon1111"
       style="fill:#000000;stroke-width:1.57296" /><path
       style="fill:#000000;stroke-width:1.57296"
       inkscape:connector-curvature="0"
       id="path1113"
       d="m 278.853,258.162 -4.27,-4.27 -15.83,15.829 c -0.568,0.568 -0.882,1.328 -0.88,2.134 0,0.807 0.312,1.565 0.88,2.133 l 15.83,15.83 4.27,-4.267 -13.695,-13.696 z"
       clip-path="url(#SVGID_2_)" /><path
       style="fill:#000000;stroke-width:1.57296"
       inkscape:connector-curvature="0"
       id="path1115"
       d="m 339.769,254.599 -15.824,-15.832 -4.268,4.269 13.688,13.696 -13.688,13.695 4.268,4.268 15.824,-15.826 c 0.57,-0.573 0.885,-1.332 0.885,-2.139 -0.003,-0.807 -0.316,-1.563 -0.885,-2.131"
       clip-path="url(#SVGID_2_)" /></g><g
     transform="matrix(0.6714168,0,0,0.6714168,-501.66704,60.198689)"
     id="g1129"
     style="opacity:0.651;fill:#000000;stroke-width:1.57296"><polygon
       style="fill:#000000;stroke-width:1.57296"
       id="polygon1119"
       points="310.22,276.398 281.838,276.398 288.302,282.433 316.683,282.433 " /><polygon
       style="fill:#000000;stroke-width:1.57296"
       id="polygon1121"
       points="281.839,267.312 310.22,267.312 316.683,261.277 288.302,261.277 " /><polygon
       style="fill:#000000;stroke-width:1.57296"
       id="polygon1123"
       points="310.22,246.152 281.841,246.152 288.302,252.189 316.681,252.189 " /><path
       clip-path="url(#SVGID_2_)"
       d="m 278.853,258.162 -4.27,-4.27 -15.83,15.829 c -0.568,0.568 -0.882,1.328 -0.88,2.134 0,0.807 0.312,1.565 0.88,2.133 l 15.83,15.83 4.27,-4.267 -13.695,-13.696 z"
       id="path1125"
       inkscape:connector-curvature="0"
       style="fill:#000000;stroke-width:1.57296" /><path
       clip-path="url(#SVGID_2_)"
       d="m 339.769,254.599 -15.824,-15.832 -4.268,4.269 13.688,13.696 -13.688,13.695 4.268,4.268 15.824,-15.826 c 0.57,-0.573 0.885,-1.332 0.885,-2.139 -0.003,-0.807 -0.316,-1.563 -0.885,-2.131"
       id="path1127"
       inkscape:connector-curvature="0"
       style="fill:#000000;stroke-width:1.57296" /></g><g
     style="opacity:0.477;fill:#000000;stroke-width:1.57296"
     id="g1141"
     transform="matrix(0.51674918,0,0,0.51674918,-455.38067,128.59536)"><polygon
       points="310.22,276.398 281.838,276.398 288.302,282.433 316.683,282.433 "
       id="polygon1131"
       style="fill:#000000;stroke-width:1.57296" /><polygon
       points="281.839,267.312 310.22,267.312 316.683,261.277 288.302,261.277 "
       id="polygon1133"
       style="fill:#000000;stroke-width:1.57296" /><polygon
       points="310.22,246.152 281.841,246.152 288.302,252.189 316.681,252.189 "
       id="polygon1135"
       style="fill:#000000;stroke-width:1.57296" /><path
       style="fill:#000000;stroke-width:1.57296"
       inkscape:connector-curvature="0"
       id="path1137"
       d="m 278.853,258.162 -4.27,-4.27 -15.83,15.829 c -0.568,0.568 -0.882,1.328 -0.88,2.134 0,0.807 0.312,1.565 0.88,2.133 l 15.83,15.83 4.27,-4.267 -13.695,-13.696 z"
       clip-path="url(#SVGID_2_)" /><path
       style="fill:#000000;stroke-width:1.57296"
       inkscape:connector-curvature="0"
       id="path1139"
       d="m 339.769,254.599 -15.824,-15.832 -4.268,4.269 13.688,13.696 -13.688,13.695 4.268,4.268 15.824,-15.826 c 0.57,-0.573 0.885,-1.332 0.885,-2.139 -0.003,-0.807 -0.316,-1.563 -0.885,-2.131"
       clip-path="url(#SVGID_2_)" /></g><g
     transform="matrix(0.41817422,0,0,0.41817422,-425.88078,176.64799)"
     id="g1153"
     style="opacity:0.376;fill:#000000;stroke-width:1.57296"><polygon
       style="fill:#000000;stroke-width:1.57296"
       id="polygon1143"
       points="310.22,276.398 281.838,276.398 288.302,282.433 316.683,282.433 " /><polygon
       style="fill:#000000;stroke-width:1.57296"
       id="polygon1145"
       points="281.839,267.312 310.22,267.312 316.683,261.277 288.302,261.277 " /><polygon
       style="fill:#000000;stroke-width:1.57296"
       id="polygon1147"
       points="310.22,246.152 281.841,246.152 288.302,252.189 316.681,252.189 " /><path
       clip-path="url(#SVGID_2_)"
       d="m 278.853,258.162 -4.27,-4.27 -15.83,15.829 c -0.568,0.568 -0.882,1.328 -0.88,2.134 0,0.807 0.312,1.565 0.88,2.133 l 15.83,15.83 4.27,-4.267 -13.695,-13.696 z"
       id="path1149"
       inkscape:connector-curvature="0"
       style="fill:#000000;stroke-width:1.57296" /><path
       clip-path="url(#SVGID_2_)"
       d="m 339.769,254.599 -15.824,-15.832 -4.268,4.269 13.688,13.696 -13.688,13.695 4.268,4.268 15.824,-15.826 c 0.57,-0.573 0.885,-1.332 0.885,-2.139 -0.003,-0.807 -0.316,-1.563 -0.885,-2.131"
       id="path1151"
       inkscape:connector-curvature="0"
       style="fill:#000000;stroke-width:1.57296" /></g><g
     style="opacity:0.295;fill:#000000;stroke-width:1.57296"
     id="g1165"
     transform="matrix(0.3428336,0,0,0.3428336,-403.33408,214.59901)"><polygon
       points="310.22,276.398 281.838,276.398 288.302,282.433 316.683,282.433 "
       id="polygon1155"
       style="fill:#000000;stroke-width:1.57296" /><polygon
       points="281.839,267.312 310.22,267.312 316.683,261.277 288.302,261.277 "
       id="polygon1157"
       style="fill:#000000;stroke-width:1.57296" /><polygon
       points="310.22,246.152 281.841,246.152 288.302,252.189 316.681,252.189 "
       id="polygon1159"
       style="fill:#000000;stroke-width:1.57296" /><path
       style="fill:#000000;stroke-width:1.57296"
       inkscape:connector-curvature="0"
       id="path1161"
       d="m 278.853,258.162 -4.27,-4.27 -15.83,15.829 c -0.568,0.568 -0.882,1.328 -0.88,2.134 0,0.807 0.312,1.565 0.88,2.133 l 15.83,15.83 4.27,-4.267 -13.695,-13.696 z"
       clip-path="url(#SVGID_2_)" /><path
       style="fill:#000000;stroke-width:1.57296"
       inkscape:connector-curvature="0"
       id="path1163"
       d="m 339.769,254.599 -15.824,-15.832 -4.268,4.269 13.688,13.696 -13.688,13.695 4.268,4.268 15.824,-15.826 c 0.57,-0.573 0.885,-1.332 0.885,-2.139 -0.003,-0.807 -0.316,-1.563 -0.885,-2.131"
       clip-path="url(#SVGID_2_)" /></g><g
     transform="matrix(0.26831859,0,0,0.26831859,-381.03447,247.92957)"
     id="g1177"
     style="opacity:0.295;fill:#000000;stroke-width:1.57296"><polygon
       style="fill:#000000;stroke-width:1.57296"
       id="polygon1167"
       points="281.838,276.398 288.302,282.433 316.683,282.433 310.22,276.398 " /><polygon
       style="fill:#000000;stroke-width:1.57296"
       id="polygon1169"
       points="310.22,267.312 316.683,261.277 288.302,261.277 281.839,267.312 " /><polygon
       style="fill:#000000;stroke-width:1.57296"
       id="polygon1171"
       points="281.841,246.152 288.302,252.189 316.681,252.189 310.22,246.152 " /><path
       clip-path="url(#SVGID_2_)"
       d="m 278.853,258.162 -4.27,-4.27 -15.83,15.829 c -0.568,0.568 -0.882,1.328 -0.88,2.134 0,0.807 0.312,1.565 0.88,2.133 l 15.83,15.83 4.27,-4.267 -13.695,-13.696 z"
       id="path1173"
       inkscape:connector-curvature="0"
       style="fill:#000000;stroke-width:1.57296" /><path
       clip-path="url(#SVGID_2_)"
       d="m 339.769,254.599 -15.824,-15.832 -4.268,4.269 13.688,13.696 -13.688,13.695 4.268,4.268 15.824,-15.826 c 0.57,-0.573 0.885,-1.332 0.885,-2.139 -0.003,-0.807 -0.316,-1.563 -0.885,-2.131"
       id="path1175"
       inkscape:connector-curvature="0"
       style="fill:#000000;stroke-width:1.57296" /></g><g
     style="opacity:0.167;fill:#000000;stroke-width:1.57296"
     id="g1189"
     transform="matrix(0.19861557,0,0,0.19861557,-360.17487,276.93003)"><polygon
       points="316.683,282.433 310.22,276.398 281.838,276.398 288.302,282.433 "
       id="polygon1179"
       style="fill:#000000;stroke-width:1.57296" /><polygon
       points="288.302,261.277 281.839,267.312 310.22,267.312 316.683,261.277 "
       id="polygon1181"
       style="fill:#000000;stroke-width:1.57296" /><polygon
       points="316.681,252.189 310.22,246.152 281.841,246.152 288.302,252.189 "
       id="polygon1183"
       style="fill:#000000;stroke-width:1.57296" /><path
       style="fill:#000000;stroke-width:1.57296"
       inkscape:connector-curvature="0"
       id="path1185"
       d="m 278.853,258.162 -4.27,-4.27 -15.83,15.829 c -0.568,0.568 -0.882,1.328 -0.88,2.134 0,0.807 0.312,1.565 0.88,2.133 l 15.83,15.83 4.27,-4.267 -13.695,-13.696 z"
       clip-path="url(#SVGID_2_)" /><path
       style="fill:#000000;stroke-width:1.57296"
       inkscape:connector-curvature="0"
       id="path1187"
       d="m 339.769,254.599 -15.824,-15.832 -4.268,4.269 13.688,13.696 -13.688,13.695 4.268,4.268 15.824,-15.826 c 0.57,-0.573 0.885,-1.332 0.885,-2.139 -0.003,-0.807 -0.316,-1.563 -0.885,-2.131"
       clip-path="url(#SVGID_2_)" /></g><g
     transform="matrix(0.1473349,0,0,0.1473349,-344.82843,298.6574)"
     id="g1201"
     style="opacity:0.104;fill:#000000;stroke-width:1.57296"><polygon
       style="fill:#000000;stroke-width:1.57296"
       id="polygon1191"
       points="281.838,276.398 288.302,282.433 316.683,282.433 310.22,276.398 " /><polygon
       style="fill:#000000;stroke-width:1.57296"
       id="polygon1193"
       points="310.22,267.312 316.683,261.277 288.302,261.277 281.839,267.312 " /><polygon
       style="fill:#000000;stroke-width:1.57296"
       id="polygon1195"
       points="281.841,246.152 288.302,252.189 316.681,252.189 310.22,246.152 " /><path
       clip-path="url(#SVGID_2_)"
       d="m 278.853,258.162 -4.27,-4.27 -15.83,15.829 c -0.568,0.568 -0.882,1.328 -0.88,2.134 0,0.807 0.312,1.565 0.88,2.133 l 15.83,15.83 4.27,-4.267 -13.695,-13.696 z"
       id="path1197"
       inkscape:connector-curvature="0"
       style="fill:#000000;stroke-width:1.57296" /><path
       clip-path="url(#SVGID_2_)"
       d="m 339.769,254.599 -15.824,-15.832 -4.268,4.269 13.688,13.696 -13.688,13.695 4.268,4.268 15.824,-15.826 c 0.57,-0.573 0.885,-1.332 0.885,-2.139 -0.003,-0.807 -0.316,-1.563 -0.885,-2.131"
       id="path1199"
       inkscape:connector-curvature="0"
       style="fill:#000000;stroke-width:1.57296" /></g></g><text
   id="text1263"
   y="169.82703"
   x="311"
   style="font-style:normal;font-variant:normal;font-weight:normal;font-stretch:normal;font-size:13.3333px;line-height:1.25;font-family:sans-serif;font-variant-ligatures:normal;font-variant-position:normal;font-variant-caps:normal;font-variant-numeric:normal;font-variant-alternates:normal;font-feature-settings:normal;text-indent:0;text-align:start;text-decoration:none;text-decoration-line:none;text-decoration-style:solid;text-decoration-color:#000000;letter-spacing:0px;word-spacing:0px;text-transform:none;writing-mode:lr-tb;direction:ltr;text-orientation:mixed;dominant-baseline:auto;baseline-shift:baseline;text-anchor:start;white-space:normal;shape-padding:0;opacity:1;vector-effect:none;fill:#000000;fill-opacity:1;stroke:none;stroke-width:1;stroke-linecap:butt;stroke-linejoin:miter;stroke-miterlimit:4;stroke-dasharray:none;stroke-dashoffset:0;stroke-opacity:1"
   xml:space="preserve" />
































<text
   id="text1119"
   y="-695.89111"
   x="-2346.1802"
   style="font-style:normal;font-variant:normal;font-weight:normal;font-stretch:normal;font-size:29.3333px;line-height:1.25;font-family:sans-serif;font-variant-ligatures:normal;font-variant-position:normal;font-variant-caps:normal;font-variant-numeric:normal;font-variant-alternates:normal;font-feature-settings:normal;text-indent:0;text-align:start;text-decoration:none;text-decoration-line:none;text-decoration-style:solid;text-decoration-color:#000000;letter-spacing:0px;word-spacing:0px;text-transform:none;writing-mode:lr-tb;direction:ltr;text-orientation:mixed;dominant-baseline:auto;baseline-shift:baseline;text-anchor:start;white-space:normal;shape-padding:0;opacity:1;vector-effect:none;fill:#000000;fill-opacity:1;stroke:none;stroke-width:1;stroke-linecap:butt;stroke-linejoin:miter;stroke-miterlimit:4;stroke-dasharray:none;stroke-dashoffset:0;stroke-opacity:1"
   xml:space="preserve" />


<text
   id="text1123"
   y="-739.17291"
   x="-2492"
   style="font-style:normal;font-variant:normal;font-weight:normal;font-stretch:normal;font-size:66.6667px;line-height:1.25;font-family:sans-serif;font-variant-ligatures:normal;font-variant-position:normal;font-variant-caps:normal;font-variant-numeric:normal;font-variant-alternates:normal;font-feature-settings:normal;text-indent:0;text-align:start;text-decoration:none;text-decoration-line:none;text-decoration-style:solid;text-decoration-color:#000000;letter-spacing:0px;word-spacing:0px;text-transform:none;writing-mode:lr-tb;direction:ltr;text-orientation:mixed;dominant-baseline:auto;baseline-shift:baseline;text-anchor:start;white-space:normal;shape-padding:0;opacity:1;vector-effect:none;fill:#000000;fill-opacity:1;stroke:none;stroke-width:1;stroke-linecap:butt;stroke-linejoin:miter;stroke-miterlimit:4;stroke-dasharray:none;stroke-dashoffset:0;stroke-opacity:1"
   xml:space="preserve" />


<text
   id="text1135"
   y="-752.17291"
   x="-2462"
   style="font-style:normal;font-variant:normal;font-weight:normal;font-stretch:normal;font-size:74.6667px;line-height:1.25;font-family:sans-serif;font-variant-ligatures:normal;font-variant-position:normal;font-variant-caps:normal;font-variant-numeric:normal;font-variant-alternates:normal;font-feature-settings:normal;text-indent:0;text-align:start;text-decoration:none;text-decoration-line:none;text-decoration-style:solid;text-decoration-color:#000000;letter-spacing:0px;word-spacing:0px;text-transform:none;writing-mode:lr-tb;direction:ltr;text-orientation:mixed;dominant-baseline:auto;baseline-shift:baseline;text-anchor:start;white-space:normal;shape-padding:0;opacity:1;vector-effect:none;fill:#000000;fill-opacity:1;stroke:none;stroke-width:1;stroke-linecap:butt;stroke-linejoin:miter;stroke-miterlimit:4;stroke-dasharray:none;stroke-dashoffset:0;stroke-opacity:1"
   xml:space="preserve" />


<text
   id="text1139"
   y="-638.17291"
   x="-2392"
   style="font-style:normal;font-variant:normal;font-weight:normal;font-stretch:normal;font-size:85.3333px;line-height:1.25;font-family:Montserrat;-inkscape-font-specification:'Montserrat, Normal';font-variant-ligatures:normal;font-variant-position:normal;font-variant-caps:normal;font-variant-numeric:normal;font-variant-alternates:normal;font-feature-settings:normal;text-indent:0;text-align:start;text-decoration:none;text-decoration-line:none;text-decoration-style:solid;text-decoration-color:#000000;letter-spacing:0px;word-spacing:0px;text-transform:none;writing-mode:lr-tb;direction:ltr;text-orientation:mixed;dominant-baseline:auto;baseline-shift:baseline;text-anchor:start;white-space:normal;shape-padding:0;opacity:1;vector-effect:none;fill:#000000;fill-opacity:1;stroke:none;stroke-width:1;stroke-linecap:butt;stroke-linejoin:miter;stroke-miterlimit:4;stroke-dasharray:none;stroke-dashoffset:0;stroke-opacity:1"
   xml:space="preserve" />




<g
   style="stroke-width:1.57296"
   transform="matrix(0.63574403,0,0,0.63574403,1898.2336,617.18406)"
   inkscape:export-ydpi="96"
   inkscape:export-xdpi="96"
   inkscape:export-filename="/home/paluh/programming/purescript/projects/lambdaterms.github.io/src/images/logo-text.png"
   id="g1517"><path
   clip-path="url(#SVGID_2_)"
   d="m 374.239,256.009 c 1.314,1.099 1.972,2.791 1.972,5.077 0,2.286 -0.671,3.96 -2.012,5.022 -1.341,1.062 -3.398,1.592 -6.17,1.592 h -3.348 v 5.536 h -3.185 v -18.874 h 6.479 c 2.863,0 4.95,0.551 6.264,1.647 m -2.254,7.79 c 0.639,-0.675 0.958,-1.665 0.958,-2.97 0,-1.305 -0.404,-2.227 -1.215,-2.767 -0.809,-0.54 -2.079,-0.81 -3.806,-0.81 h -3.241 v 7.56 h 3.7 c 1.764,10e-4 2.964,-0.337 3.604,-1.013"
   id="path5271"
   inkscape:connector-curvature="0"
   style="fill:#000000;stroke-width:1.57296"
   transform="matrix(2.904693,0,0,2.904693,-3527.9358,-1619.3666)" /><path
   clip-path="url(#SVGID_2_)"
   d="m 387.443,268.916 c 0.863,1.008 2.033,1.512 3.51,1.512 1.474,0 2.646,-0.504 3.51,-1.512 0.863,-1.008 1.294,-2.376 1.294,-4.104 v -10.449 h 3.188 v 10.584 c 0,2.718 -0.748,4.81 -2.242,6.277 -1.494,1.467 -3.41,2.201 -5.75,2.201 -2.34,0 -4.258,-0.734 -5.752,-2.201 -1.494,-1.467 -2.241,-3.559 -2.241,-6.277 v -10.584 h 3.186 v 10.449 c 0,1.728 0.432,3.096 1.297,4.104"
   id="path5273"
   inkscape:connector-curvature="0"
   style="fill:#000000;stroke-width:1.57296"
   transform="matrix(2.904693,0,0,2.904693,-3527.9358,-1619.3666)" /><path
   clip-path="url(#SVGID_2_)"
   d="m 422.243,260.492 c 0,3.114 -1.356,5.076 -4.076,5.886 l 4.942,6.858 h -4.051 l -4.508,-6.345 h -4.187 v 6.345 h -3.185 v -18.873 h 7.019 c 2.879,0 4.942,0.486 6.185,1.458 1.242,0.972 1.861,2.529 1.861,4.671 m -4.237,2.673 c 0.647,-0.558 0.973,-1.454 0.973,-2.687 0,-1.232 -0.334,-2.079 -1,-2.538 -0.666,-0.459 -1.854,-0.688 -3.563,-0.688 h -4.051 v 6.75 h 3.969 c 1.799,0 3.023,-0.279 3.672,-0.837"
   id="path5275"
   inkscape:connector-curvature="0"
   style="fill:#000000;stroke-width:1.57296"
   transform="matrix(2.904693,0,0,2.904693,-3527.9358,-1619.3666)" /><polygon
   clip-path="url(#SVGID_2_)"
   points="433.262,262.355 442.307,262.355 442.307,265.19 433.262,265.19 433.262,270.239 443.655,270.239 443.655,273.236 430.075,273.236 430.075,254.363 443.331,254.363 443.331,257.36 433.262,257.36 "
   id="polygon5277"
   style="fill:#000000;stroke-width:1.57296"
   transform="matrix(2.904693,0,0,2.904693,-3527.9358,-1619.3666)" /><path
   clip-path="url(#SVGID_2_)"
   d="m 456.683,256.847 c -0.928,0 -1.687,0.189 -2.28,0.567 -0.595,0.378 -0.892,0.95 -0.892,1.715 0,0.765 0.297,1.35 0.892,1.755 0.594,0.405 1.856,0.841 3.793,1.309 1.935,0.468 3.392,1.125 4.375,1.971 0.979,0.847 1.47,2.093 1.47,3.74 0,1.647 -0.621,2.983 -1.863,4.009 -1.241,1.026 -2.871,1.539 -4.887,1.539 -2.953,0 -5.572,-1.017 -7.857,-3.051 l 1.998,-2.403 c 1.908,1.657 3.89,2.484 5.939,2.484 1.028,0 1.842,-0.22 2.446,-0.661 0.601,-0.441 0.903,-1.026 0.903,-1.755 0,-0.729 -0.284,-1.296 -0.851,-1.701 -0.567,-0.405 -1.543,-0.774 -2.93,-1.107 -1.386,-0.333 -2.44,-0.639 -3.158,-0.918 -0.721,-0.279 -1.36,-0.644 -1.918,-1.094 -1.116,-0.846 -1.674,-2.142 -1.674,-3.888 0,-1.745 0.635,-3.092 1.903,-4.036 1.271,-0.945 2.84,-1.418 4.711,-1.418 1.205,0 2.402,0.198 3.593,0.594 1.187,0.396 2.213,0.954 3.077,1.674 l -1.7,2.403 c -0.56,-0.503 -1.315,-0.918 -2.269,-1.242 -0.954,-0.324 -1.893,-0.486 -2.821,-0.486"
   id="path5279"
   inkscape:connector-curvature="0"
   style="fill:#000000;stroke-width:1.57296"
   transform="matrix(2.904693,0,0,2.904693,-3527.9358,-1619.3666)" /><path
   clip-path="url(#SVGID_2_)"
   d="m 479.835,270.347 c 1.099,0 2.043,-0.184 2.836,-0.553 0.791,-0.369 1.619,-0.959 2.482,-1.769 l 2.053,2.106 c -1.998,2.214 -4.424,3.321 -7.276,3.321 -2.852,0 -5.22,-0.918 -7.101,-2.754 -1.881,-1.836 -2.821,-4.158 -2.821,-6.966 0,-2.808 0.959,-5.148 2.875,-7.02 1.918,-1.872 4.338,-2.808 7.264,-2.808 2.925,0 5.369,1.08 7.33,3.24 l -2.026,2.214 c -0.899,-0.864 -1.75,-1.467 -2.551,-1.809 -0.8,-0.342 -1.742,-0.513 -2.822,-0.513 -1.908,0 -3.51,0.617 -4.804,1.85 -1.297,1.233 -1.946,2.808 -1.946,4.725 0,1.917 0.646,3.519 1.933,4.806 1.285,1.287 2.81,1.93 4.574,1.93"
   id="path5281"
   inkscape:connector-curvature="0"
   style="fill:#000000;stroke-width:1.57296"
   transform="matrix(2.904693,0,0,2.904693,-3527.9358,-1619.3666)" /><path
   clip-path="url(#SVGID_2_)"
   d="m 509.399,260.492 c 0,3.114 -1.358,5.076 -4.076,5.886 l 4.94,6.858 h -4.049 l -4.511,-6.345 h -4.186 v 6.345 h -3.185 v -18.873 h 7.019 c 2.881,0 4.942,0.486 6.184,1.458 1.243,0.972 1.864,2.529 1.864,4.671 m -4.238,2.673 c 0.646,-0.558 0.972,-1.454 0.972,-2.687 0,-1.232 -0.332,-2.079 -0.998,-2.538 -0.666,-0.459 -1.856,-0.688 -3.565,-0.688 h -4.051 v 6.75 h 3.971 c 1.798,0 3.024,-0.279 3.671,-0.837"
   id="path5283"
   inkscape:connector-curvature="0"
   style="fill:#000000;stroke-width:1.57296"
   transform="matrix(2.904693,0,0,2.904693,-3527.9358,-1619.3666)" /><rect
   x="517.229"
   y="254.36301"
   clip-path="url(#SVGID_2_)"
   width="3.187"
   height="18.872999"
   id="rect5285"
   style="fill:#000000;stroke-width:1.57296"
   transform="matrix(2.904693,0,0,2.904693,-3527.9358,-1619.3666)" /><path
   clip-path="url(#SVGID_2_)"
   d="m 541.639,256.009 c 1.313,1.099 1.971,2.791 1.971,5.077 0,2.286 -0.67,3.96 -2.012,5.022 -1.341,1.062 -3.397,1.592 -6.168,1.592 h -3.351 v 5.536 h -3.185 v -18.874 h 6.479 c 2.863,0 4.95,0.551 6.266,1.647 m -2.255,7.79 c 0.64,-0.675 0.959,-1.665 0.959,-2.97 0,-1.305 -0.405,-2.227 -1.217,-2.767 -0.808,-0.54 -2.078,-0.81 -3.806,-0.81 h -3.241 v 7.56 h 3.7 c 1.763,10e-4 2.966,-0.337 3.605,-1.013"
   id="path5287"
   inkscape:connector-curvature="0"
   style="fill:#000000;stroke-width:1.57296"
   transform="matrix(2.904693,0,0,2.904693,-3527.9358,-1619.3666)" /><polygon
   clip-path="url(#SVGID_2_)"
   points="554.542,257.279 548.82,257.279 548.82,254.363 563.453,254.363 563.453,257.279 557.729,257.279 557.729,273.236 554.542,273.236 "
   id="polygon5289"
   style="fill:#000000;stroke-width:1.57296"
   transform="matrix(2.904693,0,0,2.904693,-3527.9358,-1619.3666)" /><text
   xml:space="preserve"
   style="font-style:normal;font-variant:normal;font-weight:500;font-stretch:normal;font-size:64px;line-height:1.25;font-family:Montserrat;-inkscape-font-specification:'Montserrat Medium';font-variant-ligatures:normal;font-variant-position:normal;font-variant-caps:normal;font-variant-numeric:normal;font-variant-alternates:normal;font-feature-settings:normal;text-indent:0;text-align:start;text-decoration:none;text-decoration-line:none;text-decoration-style:solid;text-decoration-color:#000000;letter-spacing:0px;word-spacing:0px;text-transform:none;writing-mode:lr-tb;direction:ltr;text-orientation:mixed;dominant-baseline:auto;baseline-shift:baseline;text-anchor:start;white-space:normal;shape-padding:0;opacity:1;vector-effect:none;fill:#000000;fill-opacity:1;stroke:none;stroke-width:1.57296;stroke-linecap:butt;stroke-linejoin:miter;stroke-miterlimit:4;stroke-dasharray:none;stroke-dashoffset:0;stroke-opacity:1"
   x="-2480"
   y="-750.86908"
   id="text1155"><tspan
     style="stroke-width:1.57296"
     sodipodi:role="line"
     x="-2480"
     y="-750.86908"
     id="tspan1157">ALL THE WAY</tspan></text>
<text
   id="text1163"
   y="-676.17291"
   x="-2484"
   style="font-style:normal;font-variant:normal;font-weight:500;font-stretch:normal;font-size:64px;line-height:1.25;font-family:Montserrat;-inkscape-font-specification:'Montserrat Medium';font-variant-ligatures:normal;font-variant-position:normal;font-variant-caps:normal;font-variant-numeric:normal;font-variant-alternates:normal;font-feature-settings:normal;text-indent:0;text-align:start;text-decoration:none;text-decoration-line:none;text-decoration-style:solid;text-decoration-color:#000000;letter-spacing:0px;word-spacing:0px;text-transform:none;writing-mode:lr-tb;direction:ltr;text-orientation:mixed;dominant-baseline:auto;baseline-shift:baseline;text-anchor:start;white-space:normal;shape-padding:0;opacity:1;vector-effect:none;fill:#000000;fill-opacity:1;stroke:none;stroke-width:1.57296;stroke-linecap:butt;stroke-linejoin:miter;stroke-miterlimit:4;stroke-dasharray:none;stroke-dashoffset:0;stroke-opacity:1"
   xml:space="preserve"><tspan
     style="stroke-width:1.57296"
     id="tspan1161"
     y="-676.17291"
     x="-2484"
     sodipodi:role="line">DOWN</tspan></text>
</g>

</svg>
